# xmcd
#
# Track frame offsets: 
#        150
#        11452
#        23852
#        38767
#        51422
#        74097
#
# Disc length: 1177 seconds
#
# Revision: 0
# Processed by: cddbd v1.5.1PL0 Copyright (c) Steve Scherf et al.
# Submitted via: ExactAudioCopy v0.95a5
#
DISCID=4d049706
DTITLE=BR5-49 - Bonus Beats
DYEAR=1998
DGENRE=Country
TTITLE0=Out Of Habit
TTITLE1=Seven Nights To Rock
TTITLE2=Little Ramona
TTITLE3=Wild One
TTITLE4=18 Wheels And A Crowbar
TTITLE5=Even If Its Wrong
EXTD=
EXTT0=
EXTT1=
EXTT2=
EXTT3=
EXTT4=
EXTT5=
PLAYORDER=
